<?xml version="1.0" encoding="utf-8"?>
<!-- Generator: Adobe Illustrator 21.0.0, SVG Export Plug-In . SVG Version: 6.00 Build 0)  -->
<svg version="1.1" id="Capa_1" xmlns="http://www.w3.org/2000/svg" xmlns:xlink="http://www.w3.org/1999/xlink" x="0px" y="0px"
	 viewBox="0 0 513 40" style="enable-background:new 0 0 513 40;" xml:space="preserve">
<style type="text/css">
	.st0{fill:none;stroke:#9C898C;stroke-miterlimit:10;}
	.st1{fill:#9C898C;}
</style>
<g>
	<g>
		<g>
			<line class="st0" x1="16.1" y1="20.3" x2="512.1" y2="20.9"/>
		</g>
		<g>
			
				<ellipse transform="matrix(1.295213e-03 -1 1 1.295213e-03 4.508107e-02 39.4319)" class="st1" cx="19.8" cy="19.7" rx="12.2" ry="12.2"/>
		</g>
		<g>
			
				<ellipse transform="matrix(1.295213e-03 -1 1 1.295213e-03 39.9414 79.4836)" class="st1" cx="59.8" cy="19.7" rx="12.2" ry="12.2"/>
		</g>
		<g>
			
				<ellipse transform="matrix(1.295213e-03 -1 1 1.295213e-03 79.8378 119.5352)" class="st1" cx="99.8" cy="19.8" rx="12.2" ry="12.2"/>
		</g>
		<g>
			
				<ellipse transform="matrix(1.295213e-03 -1 1 1.295213e-03 119.7341 159.5869)" class="st1" cx="139.8" cy="19.8" rx="12.2" ry="12.2"/>
		</g>
		<g>
			
				<ellipse transform="matrix(1.295213e-03 -1 1 1.295213e-03 159.6305 199.6386)" class="st1" cx="179.8" cy="19.9" rx="12.2" ry="12.2"/>
		</g>
		<g>
			
				<ellipse transform="matrix(1.295213e-03 -1 1 1.295213e-03 199.5268 239.6903)" class="st1" cx="219.8" cy="20" rx="12.2" ry="12.2"/>
		</g>
		<g>
			
				<ellipse transform="matrix(1.295213e-03 -1 1 1.295213e-03 239.4232 279.7419)" class="st1" cx="259.8" cy="20" rx="12.2" ry="12.2"/>
		</g>
		<g>
			
				<ellipse transform="matrix(1.295213e-03 -1 1 1.295213e-03 279.3195 319.7936)" class="st1" cx="299.8" cy="20.1" rx="12.2" ry="12.2"/>
		</g>
		<g>
			
				<ellipse transform="matrix(1.295213e-03 -1 1 1.295213e-03 319.2159 359.8453)" class="st1" cx="339.8" cy="20.1" rx="12.2" ry="12.2"/>
		</g>
		<g>
			
				<ellipse transform="matrix(1.295213e-03 -1 1 1.295213e-03 359.1122 399.897)" class="st1" cx="379.8" cy="20.2" rx="12.2" ry="12.2"/>
		</g>
		<g>
			
				<ellipse transform="matrix(1.295213e-03 -1 1 1.295213e-03 399.0086 439.9486)" class="st1" cx="419.8" cy="20.2" rx="12.2" ry="12.2"/>
		</g>
		<g>
			
				<ellipse transform="matrix(1.295213e-03 -1 1 1.295213e-03 438.9049 480.0003)" class="st1" cx="459.8" cy="20.3" rx="12.2" ry="12.2"/>
		</g>
		<g>
			
				<ellipse transform="matrix(1.295213e-03 -1 1 1.295213e-03 478.8013 520.052)" class="st1" cx="499.8" cy="20.3" rx="12.2" ry="12.2"/>
		</g>
		<g>
			
				<ellipse transform="matrix(1.295213e-03 -1 1 1.295213e-03 79.9415 119.4318)" class="st0" cx="99.8" cy="19.7" rx="18.9" ry="18.9"/>
		</g>
	</g>
</g>
</svg>
