<?xml version="1.0" encoding="utf-8"?>
<!-- Generator: Adobe Illustrator 21.0.0, SVG Export Plug-In . SVG Version: 6.00 Build 0)  -->
<svg version="1.1" id="Capa_1" xmlns="http://www.w3.org/2000/svg" xmlns:xlink="http://www.w3.org/1999/xlink" x="0px" y="0px"
	 viewBox="0 0 464.4 40" style="enable-background:new 0 0 464.4 40;" xml:space="preserve">
<style type="text/css">
	.st0{fill:none;stroke:#9C898C;stroke-miterlimit:10;}
	.st1{fill:#9C898C;}
</style>
<g>
	<g>
		<g>
			<line class="st0" x1="8.5" y1="20.3" x2="464.4" y2="20.9"/>
		</g>
		<g>
			
				<ellipse transform="matrix(1.295211e-03 -1 1 1.295211e-03 -7.444 31.8028)" class="st1" cx="12.2" cy="19.6" rx="12.2" ry="12.2"/>
		</g>
		<g>
			
				<ellipse transform="matrix(1.295211e-03 -1 1 1.295211e-03 32.301 71.7987)" class="st1" cx="52.1" cy="19.7" rx="12.2" ry="12.2"/>
		</g>
		<g>
			
				<ellipse transform="matrix(1.295211e-03 -1 1 1.295211e-03 72.3457 111.8951)" class="st1" cx="92.2" cy="19.7" rx="12.2" ry="12.2"/>
		</g>
		<g>
			
				<ellipse transform="matrix(1.295211e-03 -1 1 1.295211e-03 112.0907 151.8911)" class="st1" cx="132.1" cy="19.8" rx="12.2" ry="12.2"/>
		</g>
		<g>
			
				<ellipse transform="matrix(1.295211e-03 -1 1 1.295211e-03 152.1351 191.9876)" class="st1" cx="172.2" cy="19.8" rx="12.2" ry="12.2"/>
		</g>
		<g>
			
				<ellipse transform="matrix(1.295211e-03 -1 1 1.295211e-03 191.9796 232.0834)" class="st1" cx="212.2" cy="19.9" rx="12.2" ry="12.2"/>
		</g>
		<g>
			
				<ellipse transform="matrix(1.295211e-03 -1 1 1.295211e-03 231.9246 272.0798)" class="st1" cx="252.2" cy="19.9" rx="12.2" ry="12.2"/>
		</g>
		<g>
			
				<ellipse transform="matrix(1.295211e-03 -1 1 1.295211e-03 271.7691 312.1758)" class="st1" cx="292.2" cy="20" rx="12.2" ry="12.2"/>
		</g>
		<g>
			
				<ellipse transform="matrix(1.295211e-03 -1 1 1.295211e-03 311.714 352.1723)" class="st1" cx="332.2" cy="20" rx="12.2" ry="12.2"/>
		</g>
		<g>
			
				<ellipse transform="matrix(1.295211e-03 -1 1 1.295211e-03 351.5587 392.2682)" class="st1" cx="372.2" cy="20.1" rx="12.2" ry="12.2"/>
		</g>
		<g>
			
				<ellipse transform="matrix(1.295211e-03 -1 1 1.295211e-03 391.5037 432.2646)" class="st1" cx="412.2" cy="20.1" rx="12.2" ry="12.2"/>
		</g>
		<g>
			
				<ellipse transform="matrix(1.295211e-03 -1 1 1.295211e-03 431.3482 472.3606)" class="st1" cx="452.2" cy="20.2" rx="12.2" ry="12.2"/>
		</g>
		<g>
			
				<ellipse transform="matrix(1.295211e-03 -1 1 1.295211e-03 72.4527 111.8026)" class="st0" cx="92.2" cy="19.6" rx="18.9" ry="18.9"/>
		</g>
	</g>
</g>
</svg>
