<?xml version="1.0" encoding="utf-8"?>
<!-- Generator: Adobe Illustrator 21.0.0, SVG Export Plug-In . SVG Version: 6.00 Build 0)  -->
<svg version="1.1" id="Capa_1" xmlns="http://www.w3.org/2000/svg" xmlns:xlink="http://www.w3.org/1999/xlink" x="0px" y="0px"
	 viewBox="0 0 472.1 40" style="enable-background:new 0 0 472.1 40;" xml:space="preserve">
<style type="text/css">
	.st0{fill:none;stroke:#8F9A9A;stroke-width:1.2;stroke-miterlimit:10;}
	.st1{fill:#8F9A9A;}
</style>
<g>
	<g>
		<g>
			<line class="st0" x1="319.1" y1="824.5" x2="815.1" y2="824.5"/>
		</g>
		<g>
			<circle class="st1" cx="322.8" cy="823.9" r="12.2"/>
		</g>
		<g>
			<circle class="st1" cx="362.8" cy="823.9" r="12.2"/>
		</g>
		<g>
			<circle class="st1" cx="402.8" cy="823.9" r="12.2"/>
		</g>
		<g>
			<circle class="st1" cx="442.8" cy="823.9" r="12.2"/>
		</g>
		<g>
			<circle class="st1" cx="482.8" cy="823.9" r="12.2"/>
		</g>
		<g>
			<circle class="st1" cx="522.8" cy="823.9" r="12.2"/>
		</g>
		<g>
			<circle class="st1" cx="562.8" cy="823.9" r="12.2"/>
		</g>
		<g>
			<circle class="st1" cx="602.8" cy="823.9" r="12.2"/>
		</g>
		<g>
			<circle class="st1" cx="642.8" cy="823.9" r="12.2"/>
		</g>
		<g>
			<circle class="st1" cx="682.8" cy="823.9" r="12.2"/>
		</g>
		<g>
			<circle class="st1" cx="722.8" cy="823.9" r="12.2"/>
		</g>
		<g>
			<circle class="st1" cx="762.8" cy="823.9" r="12.2"/>
		</g>
		<g>
			<circle class="st1" cx="802.8" cy="823.9" r="12.2"/>
		</g>
		<g>
			<circle class="st0" cx="322.8" cy="823.9" r="18.9"/>
		</g>
	</g>
</g>
<g>
	<g>
		<g>
			<line class="st0" x1="9.5" y1="20.6" x2="472.1" y2="20.6"/>
		</g>
		<g>
			<circle class="st1" cx="13.2" cy="20" r="12.2"/>
		</g>
		<g>
			<circle class="st1" cx="53.2" cy="20" r="12.2"/>
		</g>
		<g>
			<circle class="st1" cx="93.2" cy="20" r="12.2"/>
		</g>
		<g>
			<circle class="st1" cx="133.2" cy="20" r="12.2"/>
		</g>
		<g>
			<circle class="st1" cx="173.2" cy="20" r="12.2"/>
		</g>
		<g>
			<circle class="st1" cx="213.2" cy="20" r="12.2"/>
		</g>
		<g>
			<circle class="st1" cx="253.2" cy="20" r="12.2"/>
		</g>
		<g>
			<circle class="st1" cx="293.2" cy="20" r="12.2"/>
		</g>
		<g>
			<circle class="st1" cx="333.2" cy="20" r="12.2"/>
		</g>
		<g>
			<circle class="st1" cx="373.2" cy="20" r="12.2"/>
		</g>
		<g>
			<circle class="st1" cx="413.2" cy="20" r="12.2"/>
		</g>
		<g>
			<circle class="st1" cx="453.2" cy="20" r="12.2"/>
		</g>
		<g>
			<circle class="st0" cx="453.2" cy="20" r="18.9"/>
		</g>
	</g>
</g>
</svg>
